<svg xmlns="http://www.w3.org/2000/svg" viewBox="0 0 512 512">
  <defs>
    <linearGradient id="bg" x1="0%" y1="0%" x2="100%" y2="100%">
      <stop offset="0%" style="stop-color:#06b6d4"/>
      <stop offset="100%" style="stop-color:#3b82f6"/>
    </linearGradient>
  </defs>
  <rect width="512" height="512" rx="96" fill="url(#bg)"/>
  <g fill="white">
    <!-- Link icon -->
    <path d="M256 128c-35.3 0-64 28.7-64 64v32h32v-32c0-17.6 14.4-32 32-32h80c17.6 0 32 14.4 32 32v80c0 17.6-14.4 32-32 32h-32v32h32c35.3 0 64-28.7 64-64v-80c0-35.3-28.7-64-64-64h-80z"/>
    <path d="M176 240c-35.3 0-64 28.7-64 64v80c0 35.3 28.7 64 64 64h80c35.3 0 64-28.7 64-64v-32h-32v32c0 17.6-14.4 32-32 32h-80c-17.6 0-32-14.4-32-32v-80c0-17.6 14.4-32 32-32h32v-32h-32z"/>
    <!-- Sound waves -->
    <circle cx="256" cy="300" r="24"/>
    <path d="M296 300c0-22.1-17.9-40-40-40v-16c30.9 0 56 25.1 56 56s-25.1 56-56 56v-16c22.1 0 40-17.9 40-40z" opacity="0.8"/>
    <path d="M328 300c0-39.8-32.2-72-72-72v-16c48.6 0 88 39.4 88 88s-39.4 88-88 88v-16c39.8 0 72-32.2 72-72z" opacity="0.6"/>
  </g>
</svg>
