<svg width="520" height="144" viewBox="0 0 520 144" fill="none" xmlns="http://www.w3.org/2000/svg">
  <defs>
    <linearGradient id="bg" x1="0" y1="0" x2="520" y2="144" gradientUnits="userSpaceOnUse">
      <stop offset="0%" stop-color="#00c896"/>
      <stop offset="100%" stop-color="#0066ff"/>
    </linearGradient>
    <clipPath id="rounded">
      <rect width="520" height="144" rx="28"/>
    </clipPath>
  </defs>

  <!-- Background -->
  <rect width="520" height="144" rx="28" fill="url(#bg)"/>

  <!-- Left bubble -->
  <path d="M36 42C36 33.163 43.163 26 52 26H88C96.837 26 104 33.163 104 42V78C104 86.837 96.837 94 88 94H72L58 108V94H52C43.163 94 36 86.837 36 78V42Z" fill="white" fill-opacity="0.25"/>

  <!-- Right bubble -->
  <path d="M76 52C76 43.163 83.163 36 92 36H124C132.837 36 140 43.163 140 52V88C140 96.837 132.837 104 124 104H114V116L100 104H92C83.163 104 76 96.837 76 88V52Z" fill="white" fill-opacity="0.38"/>

  <!-- Soundwave bars -->
  <line x1="84" y1="56" x2="84" y2="80" stroke="white" stroke-width="3.5" stroke-linecap="round" stroke-opacity="0.85"/>
  <line x1="92" y1="48" x2="92" y2="88" stroke="white" stroke-width="4" stroke-linecap="round"/>
  <line x1="100" y1="54" x2="100" y2="82" stroke="white" stroke-width="3.5" stroke-linecap="round" stroke-opacity="0.85"/>
  <line x1="108" y1="60" x2="108" y2="76" stroke="white" stroke-width="3" stroke-linecap="round" stroke-opacity="0.6"/>

  <!-- Wordmark -->
  <text x="168" y="88" font-family="Syne, sans-serif" font-size="64" font-weight="800" fill="white" letter-spacing="-2">VoxLink</text>

  <!-- TM -->
  <text x="448" y="56" font-family="system-ui, sans-serif" font-size="14" fill="white" fill-opacity="0.45">™</text>
</svg>
